<svg width="24" height="24" viewBox="0 0 24 24" fill="none" xmlns="http://www.w3.org/2000/svg">
<path d="M9 14.4375C9.51777 14.4375 9.9375 14.0178 9.9375 13.5C9.9375 12.9822 9.51777 12.5625 9 12.5625C8.48223 12.5625 8.0625 12.9822 8.0625 13.5C8.0625 14.0178 8.48223 14.4375 9 14.4375Z" fill="#FDFDFD"/>
<path d="M15 14.4375C15.5178 14.4375 15.9375 14.0178 15.9375 13.5C15.9375 12.9822 15.5178 12.5625 15 12.5625C14.4822 12.5625 14.0625 12.9822 14.0625 13.5C14.0625 14.0178 14.4822 14.4375 15 14.4375Z" fill="#FDFDFD"/>
<path d="M6.97461 7.50045C8.60047 6.99089 10.2958 6.73785 11.9996 6.75045C13.7034 6.73785 15.3988 6.99089 17.0246 7.50045" stroke="#FDFDFD" stroke-width="1.5" stroke-linecap="round" stroke-linejoin="round"/>
<path d="M17.0246 16.5C15.3988 17.0096 13.7034 17.2626 11.9996 17.25C10.2958 17.2626 8.60047 17.0096 6.97461 16.5" stroke="#FDFDFD" stroke-width="1.5" stroke-linecap="round" stroke-linejoin="round"/>
<path d="M14.5316 17.0723L15.666 19.3223C15.739 19.4757 15.8631 19.5989 16.0171 19.6708C16.1711 19.7426 16.3453 19.7586 16.5098 19.716C18.8066 19.1535 20.7941 18.1785 22.2379 16.9223C22.3467 16.8262 22.4258 16.701 22.4657 16.5615C22.5055 16.4219 22.5046 16.2738 22.4629 16.1348L19.2848 5.52227C19.2538 5.41366 19.1979 5.31383 19.1213 5.23079C19.0448 5.14775 18.9499 5.08382 18.8441 5.04415C17.9462 4.67577 17.0177 4.38716 16.0691 4.18164C15.8869 4.14173 15.6963 4.17032 15.5337 4.26196C15.3712 4.35361 15.2481 4.50189 15.1879 4.67852L14.4473 6.91915" stroke="#FDFDFD" stroke-width="1.5" stroke-linecap="round" stroke-linejoin="round"/>
<path d="M9.46909 17.0723L8.33472 19.3223C8.26173 19.4757 8.13758 19.5989 7.98361 19.6708C7.82964 19.7426 7.65545 19.7586 7.49097 19.716C5.19409 19.1535 3.20659 18.1785 1.76284 16.9223C1.654 16.8262 1.57495 16.701 1.53508 16.5615C1.4952 16.4219 1.49616 16.2738 1.53784 16.1348L4.71597 5.52227C4.7469 5.41366 4.80288 5.31383 4.8794 5.23079C4.95593 5.14775 5.05087 5.08382 5.15659 5.04415C6.05449 4.67577 6.98308 4.38716 7.93159 4.18164C8.11387 4.14173 8.30447 4.17032 8.46701 4.26196C8.62955 4.35361 8.75266 4.50189 8.81284 4.67852L9.55347 6.91915" stroke="#FDFDFD" stroke-width="1.5" stroke-linecap="round" stroke-linejoin="round"/>
</svg>
