<svg width="176" height="60" viewBox="0 0 176 60" fill="none" xmlns="http://www.w3.org/2000/svg">
<g clip-path="url(#clip0_942_4878)">
<path d="M37.4601 19.8912L40.0188 21.666C40.1837 21.7809 40.4676 21.6224 40.6479 21.3134L47.5644 9.57518C49.1948 6.79018 49.0835 5.35608 49.0567 2.72954C49.0452 1.50145 48.65 0.554624 47.9519 0.0713087L47.8483 0L41.2578 11.3579C40.0149 13.4853 38.0278 17.431 37.4256 19.6852C37.4026 19.7803 37.4141 19.8595 37.4601 19.8912Z" fill="white"/>
<path d="M41.3694 22.9764L43.3718 25.4604C43.5022 25.6228 43.7938 25.5713 44.0278 25.3494L51.5811 18.1354C53.6718 16.1387 55.164 13.6191 55.6819 11.2105C55.9236 10.0854 55.7586 9.08708 55.2101 8.40964L55.1295 8.30664L45.3666 17.6362C43.7708 19.1614 42.4051 20.9204 41.3809 22.7784C41.3387 22.8536 41.3348 22.9329 41.3732 22.9764H41.3694Z" fill="white"/>
<path d="M44.3266 27.1324L45.6117 30.1234C45.6961 30.3175 45.957 30.3769 46.1986 30.2541L54.009 26.2846C56.1687 25.1872 57.9103 23.3966 58.7888 21.3603C59.1992 20.4095 59.2337 19.435 58.8847 18.6189L58.831 18.4961L48.7305 23.6303C47.0809 24.4702 45.5887 25.6072 44.3688 26.9541C44.3189 27.0096 44.2998 27.0809 44.3266 27.1363V27.1324Z" fill="white"/>
<path d="M46.1028 32.0171L46.567 35.2814C46.5976 35.4914 46.801 35.634 47.0235 35.5984L54.2507 34.3821C56.2493 34.0454 58.0408 32.9124 59.1686 31.2683C59.698 30.4998 59.9205 29.5807 59.7939 28.6933L59.7747 28.5586L50.4299 30.1313C48.9031 30.3889 47.4454 30.9791 46.1718 31.8626C46.1181 31.8982 46.0913 31.9616 46.0989 32.021L46.1028 32.0171Z" fill="white"/>
<path d="M46.5472 37.2505L46.1521 40.5268C46.1253 40.7407 46.248 40.9309 46.4245 40.9586L52.1518 41.7747C53.7361 42.0005 55.3435 41.3983 56.571 40.1267C57.1426 39.5324 57.5185 38.7084 57.6259 37.8131L57.6413 37.6784L50.2376 36.6246C49.0292 36.4543 47.794 36.6246 46.6355 37.1238C46.5856 37.1436 46.5511 37.1951 46.5472 37.2545V37.2505Z" fill="white"/>
<path d="M45.6347 42.413L44.4148 45.4357C44.3343 45.6338 44.3765 45.8438 44.5107 45.9032L48.7688 47.9355C49.9465 48.498 51.3735 48.2801 52.6893 47.3412C53.3031 46.9015 53.8286 46.2003 54.1586 45.3763L54.2084 45.2535L48.7036 42.623C47.806 42.1951 46.7894 42.0842 45.7421 42.3021C45.6999 42.31 45.6577 42.3536 45.6347 42.409V42.413Z" fill="white"/>
<path d="M43.4291 47.0883L41.4803 49.6198C41.3537 49.7822 41.3192 49.9803 41.4036 50.0556L44.1388 52.5474C44.8945 53.2367 46.1029 53.2645 47.4532 52.6227C48.0861 52.3216 48.7268 51.7749 49.26 51.0856L49.3405 50.9826L45.8036 47.7579C45.2244 47.231 44.4533 46.9735 43.548 47.0091C43.5096 47.0091 43.4636 47.0408 43.4291 47.0883Z" fill="white"/>
<path d="M40.1106 50.9067L37.5903 52.7449C37.4253 52.8637 37.3371 53.0301 37.3869 53.1133L39.0825 55.8706C39.5505 56.6352 40.6285 56.9006 42.0363 56.6114C42.6961 56.4767 43.4403 56.1241 44.127 55.621L44.2306 55.5457L42.0363 51.9803C41.6795 51.3979 41.0619 51.0137 40.241 50.8592C40.2065 50.8512 40.1566 50.8711 40.1106 50.9027V50.9067Z" fill="white"/>
<path d="M35.9403 53.5615L33.0479 54.5598C32.8599 54.6232 32.7256 54.7381 32.7487 54.8173L33.4775 57.321C33.6808 58.0143 34.59 58.4263 35.9825 58.4541C36.6346 58.4659 37.4287 58.3233 38.219 58.05L38.3379 58.0104L37.3942 54.7737C37.2408 54.2468 36.7881 53.8269 36.0746 53.5536C36.0439 53.5417 35.994 53.5456 35.9403 53.5654V53.5615Z" fill="white"/>
<path d="M31.2604 54.8438L28.226 54.919C28.0304 54.923 27.8693 54.9903 27.8731 55.0696L27.9268 57.5971C27.9422 58.2943 28.7094 58.944 30.0405 59.3758C30.662 59.5779 31.4637 59.6769 32.2923 59.6571H32.4151L32.346 56.3888C32.3345 55.854 32.0084 55.339 31.3947 54.8754C31.3678 54.8556 31.3179 54.8437 31.2604 54.8477V54.8438Z" fill="white"/>
<path d="M22.3684 19.8912L19.8097 21.666C19.6448 21.7809 19.3609 21.6224 19.1806 21.3134L12.2641 9.57518C10.6337 6.79018 10.745 5.35608 10.7718 2.72954C10.7833 1.50145 11.1785 0.554624 11.8766 0.0713087L11.9802 0L18.5706 11.3579C19.8135 13.4853 21.8007 17.431 22.4029 19.6852C22.4259 19.7803 22.4144 19.8595 22.3684 19.8912Z" fill="white"/>
<path d="M18.4638 22.9764L16.4614 25.4604C16.331 25.6228 16.0394 25.5713 15.8054 25.3494L8.25211 18.1354C6.16143 16.1387 4.66918 13.6191 4.15131 11.2105C3.90963 10.0854 4.07459 9.08708 4.62315 8.40964L4.70371 8.30664L14.4666 17.6362C16.0624 19.1614 17.4281 20.9204 18.4523 22.7784C18.4945 22.8536 18.4984 22.9329 18.46 22.9764H18.4638Z" fill="white"/>
<path d="M15.5021 27.1324L14.217 30.1234C14.1326 30.3175 13.8718 30.3769 13.6301 30.2541L5.81976 26.2846C3.66002 25.1872 1.91843 23.3966 1.03996 21.3603C0.629496 20.4095 0.594971 19.435 0.944057 18.6189L0.997763 18.4961L11.0982 23.6303C12.7478 24.4702 14.24 25.6072 15.4599 26.9541C15.5098 27.0096 15.529 27.0809 15.5021 27.1363V27.1324Z" fill="white"/>
<path d="M13.7297 32.0171L13.2655 35.2814C13.2348 35.4914 13.0315 35.634 12.809 35.5984L5.58178 34.3821C3.58316 34.0454 1.7917 32.9124 0.663879 31.2683C0.134495 30.4998 -0.0879995 29.5807 0.0385922 28.6933L0.0577728 28.5586L9.40254 30.1313C10.9293 30.3889 12.387 30.9791 13.6606 31.8626C13.7143 31.8982 13.7412 31.9616 13.7335 32.021L13.7297 32.0171Z" fill="white"/>
<path d="M13.2806 37.2505L13.6757 40.5268C13.7025 40.7407 13.5798 40.9309 13.4033 40.9586L7.676 41.7747C6.09169 42.0005 4.48435 41.3983 3.2568 40.1267C2.68522 39.5324 2.30928 38.7084 2.20187 37.8131L2.18652 37.6784L9.59022 36.6246C10.7986 36.4543 12.0338 36.6246 13.1923 37.1238C13.2422 37.1436 13.2767 37.1951 13.2806 37.2545V37.2505Z" fill="white"/>
<path d="M14.1977 42.413L15.4176 45.4357C15.4982 45.6338 15.456 45.8438 15.3217 45.9032L11.0636 47.9355C9.88594 48.498 8.45891 48.2801 7.14312 47.3412C6.52935 46.9015 6.0038 46.2003 5.67389 45.3763L5.62402 45.2535L11.1288 42.623C12.0265 42.1951 13.0431 42.0842 14.0903 42.3021C14.1325 42.31 14.1747 42.3536 14.1977 42.409V42.413Z" fill="white"/>
<path d="M16.3997 47.0883L18.3485 49.6198C18.4751 49.7822 18.5096 49.9803 18.4252 50.0556L15.6901 52.5474C14.9343 53.2367 13.726 53.2645 12.3756 52.6227C11.7427 52.3216 11.1021 51.7749 10.5688 51.0856L10.4883 50.9826L14.0252 47.7579C14.6044 47.231 15.3755 46.9735 16.2808 47.0091C16.3192 47.0091 16.3652 47.0408 16.3997 47.0883Z" fill="white"/>
<path d="M19.7176 50.9067L22.238 52.7449C22.4029 52.8637 22.4912 53.0301 22.4413 53.1133L20.7457 55.8706C20.2777 56.6352 19.1998 56.9006 17.7919 56.6114C17.1321 56.4767 16.3879 56.1241 15.7012 55.621L15.5977 55.5457L17.7919 51.9803C18.1487 51.3979 18.7663 51.0137 19.5872 50.8592C19.6217 50.8512 19.6716 50.8711 19.7176 50.9027V50.9067Z" fill="white"/>
<path d="M23.8878 53.5615L26.7802 54.5598C26.9682 54.6232 27.1025 54.7381 27.0794 54.8173L26.3506 57.321C26.1473 58.0143 25.2381 58.4263 23.8456 58.4541C23.1935 58.4659 22.3994 58.3233 21.6092 58.05L21.4902 58.0104L22.4339 54.7737C22.5874 54.2468 23.04 53.8269 23.7535 53.5536C23.7842 53.5417 23.8341 53.5456 23.8878 53.5654V53.5615Z" fill="white"/>
<path d="M82.6327 10.4028V13.7579H73.743V17.2101H81.6597V20.4682H73.743V27.301H70.1123V10.3926H82.6327V10.4028Z" fill="white"/>
<path d="M85.9863 27.3068V10.3984H93.7136C95.3779 10.3984 96.7912 10.9806 97.9639 12.1398C99.1366 13.2991 99.7203 14.6677 99.7203 16.2456C99.7203 17.3385 99.408 18.3547 98.7883 19.2893C98.1687 20.2238 97.3494 20.8928 96.3304 21.2911L99.961 27.3068H95.8439L92.4795 21.7507H89.6221V27.3068H85.9915H85.9863ZM93.7136 18.6101C94.4101 18.6101 94.999 18.37 95.4803 17.8849C95.9668 17.3998 96.2075 16.8125 96.2075 16.1231C96.2075 15.4337 95.9668 14.8464 95.4803 14.3715C94.9938 13.8965 94.4049 13.6565 93.7136 13.6565H89.6221V18.6101H93.7136Z" fill="white"/>
<path d="M116.28 10.4028V13.7579H107.636V17.2101H115.312V20.4937H107.636V23.9459H116.28V27.301H104V10.3926H116.28V10.4028Z" fill="white"/>
<path d="M132.28 10.4028V13.7579H123.636V17.2101H131.312V20.4937H123.636V23.9459H132.28V27.301H120V10.3926H132.28V10.4028Z" fill="white"/>
<path d="M74.8488 32.3613H80.369L86.0122 49.2697H82.2586L81.1679 45.9146H73.9783L72.8619 49.2697H69.0879L74.8539 32.3613H74.8488ZM80.1027 42.6259L77.6089 34.8738L75.0434 42.6259H80.1027Z" fill="white"/>
<path d="M87.8301 49.2658V32.3574H95.5574C97.2216 32.3574 98.635 32.9396 99.8076 34.0988C100.98 35.258 101.564 36.6266 101.564 38.2046C101.564 39.2975 101.252 40.3137 100.632 41.2482C100.012 42.1828 99.1931 42.8518 98.1741 43.2501L101.805 49.2658H97.6876L94.3233 43.7097H91.4658V49.2658H87.8352H87.8301ZM95.5574 40.569C96.2538 40.569 96.8427 40.329 97.3241 39.8439C97.8105 39.3588 98.0512 38.7715 98.0512 38.0821C98.0512 37.3927 97.8105 36.8054 97.3241 36.3305C96.8376 35.8555 96.2487 35.6155 95.5574 35.6155H91.4658V40.569H95.5574Z" fill="white"/>
<path d="M102.896 32.3613H116.65V35.742H111.683V49.2646H108.052V35.742H102.896V32.3613Z" fill="white"/>
<path d="M119.072 49.2658V32.3574H122.729V49.2658H119.072Z" fill="white"/>
<path d="M127.04 33.5672C128.284 32.6327 129.795 32.168 131.567 32.168C133.651 32.168 135.725 32.7655 137.788 33.9553V37.6526C136.805 37.0092 135.755 36.4985 134.639 36.1206C133.523 35.7427 132.498 35.5537 131.561 35.5537C130.773 35.5537 130.107 35.6967 129.575 35.9878C129.042 36.2789 128.776 36.6721 128.776 37.1726C128.776 37.673 129.088 38.0816 129.708 38.3573C130.327 38.6331 131.285 38.9293 132.575 39.251L132.913 39.3225C133.011 39.3531 133.108 39.3787 133.205 39.394C136.739 40.2775 138.51 41.9933 138.51 44.5365C138.51 46.1145 137.865 47.3299 136.575 48.1827C135.284 49.0355 133.779 49.4645 132.068 49.4645H131.874C129.293 49.3981 127.178 48.6423 125.529 47.192V43.4743C127.629 45.2157 129.825 46.0838 132.114 46.0838C132.903 46.0838 133.564 45.9511 134.086 45.6855C134.608 45.42 134.875 45.0369 134.875 44.5365C134.875 44.036 134.557 43.6224 133.917 43.2445C133.277 42.8666 132.12 42.4682 130.44 42.0495C126.901 41.1813 125.135 39.5625 125.135 37.193C125.135 35.7274 125.765 34.5222 127.024 33.5723L127.04 33.5672Z" fill="white"/>
<path d="M139.97 32.3613H153.724V35.742H148.757V49.2646H145.126V35.742H139.97V32.3613Z" fill="white"/>
<path d="M157.309 33.5672C158.554 32.6327 160.064 32.168 161.836 32.168C163.92 32.168 165.994 32.7655 168.058 33.9553V37.6526C167.075 37.0092 166.025 36.4985 164.909 36.1206C163.792 35.7427 162.768 35.5537 161.831 35.5537C161.042 35.5537 160.377 35.6967 159.844 35.9878C159.311 36.2789 159.045 36.6721 159.045 37.1726C159.045 37.673 159.358 38.0816 159.977 38.3573C160.597 38.6331 161.554 38.9293 162.845 39.251L163.183 39.3225C163.28 39.3531 163.377 39.3787 163.475 39.394C167.008 40.2775 168.78 41.9933 168.78 44.5365C168.78 46.1145 168.135 47.3299 166.844 48.1827C165.554 49.0355 164.048 49.4645 162.338 49.4645H162.143C159.562 49.3981 157.448 48.6423 155.799 47.192V43.4743C157.898 45.2157 160.095 46.0838 162.384 46.0838C163.173 46.0838 163.833 45.9511 164.355 45.6855C164.878 45.42 165.144 45.0369 165.144 44.5365C165.144 44.036 164.827 43.6224 164.186 43.2445C163.546 42.8666 162.389 42.4682 160.709 42.0495C157.171 41.1813 155.404 39.5625 155.404 37.193C155.404 35.7274 156.034 34.5222 157.294 33.5723L157.309 33.5672Z" fill="white"/>
</g>
<defs>
<clipPath id="clip0_942_4878">
<rect width="176" height="59.6601" fill="white"/>
</clipPath>
</defs>
</svg>
