<svg width="400" height="400" viewBox="0 0 400 400" fill="none" xmlns="http://www.w3.org/2000/svg">
<rect width="400" height="400" rx="200"/>
<path d="M231.259 158.241L242.367 165.964C243.089 166.467 244.31 165.774 245.098 164.428L275.125 113.344C282.202 101.215 281.729 94.9743 281.598 83.5392C281.545 78.1956 279.838 74.0757 276.805 71.9682L276.359 71.6418L247.75 121.08C242.354 130.34 233.728 147.513 231.115 157.344C231.01 157.751 231.063 158.091 231.273 158.241H231.259Z" fill="white"/>
<path d="M248.221 171.675L256.913 182.484C257.477 183.191 258.751 182.974 259.762 182.008L292.546 150.599C301.618 141.911 308.091 130.938 310.349 120.455C311.4 115.546 310.678 111.209 308.314 108.272L307.96 107.823L265.578 148.424C258.659 155.059 252.724 162.714 248.273 170.804C248.09 171.144 248.077 171.471 248.234 171.675H248.221Z" fill="white"/>
<path d="M261.075 189.745L266.642 202.771C267.01 203.614 268.139 203.872 269.189 203.342L303.103 186.06C312.49 181.274 320.04 173.483 323.86 164.632C325.646 160.498 325.79 156.242 324.28 152.693L324.057 152.163L280.218 174.503C273.063 178.147 266.577 183.11 261.285 188.97C261.062 189.215 260.997 189.514 261.102 189.759L261.075 189.745Z" fill="white"/>
<path d="M268.771 211.025L270.779 225.234C270.911 226.158 271.804 226.77 272.762 226.607L304.141 221.318C312.82 219.849 320.592 214.927 325.503 207.761C327.801 204.417 328.759 200.419 328.208 196.544L328.129 195.959L287.559 202.812C280.928 203.927 274.6 206.51 269.086 210.345C268.863 210.508 268.731 210.766 268.771 211.025Z" fill="white"/>
<path d="M270.712 233.813L269.006 248.062C268.901 248.987 269.426 249.83 270.187 249.939L295.041 253.488C301.921 254.467 308.893 251.856 314.223 246.308C316.718 243.711 318.346 240.135 318.805 236.247L318.871 235.662L286.73 231.08C281.479 230.332 276.122 231.08 271.093 233.242C270.883 233.337 270.739 233.554 270.699 233.813H270.712Z" fill="white"/>
<path d="M266.748 256.275L261.457 269.437C261.116 270.293 261.299 271.204 261.864 271.476L280.35 280.328C285.471 282.775 291.655 281.837 297.366 277.731C300.031 275.814 302.303 272.768 303.747 269.178L303.957 268.635L280.061 257.186C276.162 255.31 271.763 254.834 267.208 255.799C267.024 255.84 266.84 256.017 266.748 256.261V256.275Z" fill="white"/>
<path d="M257.176 276.63L248.721 287.657C248.169 288.378 248.025 289.221 248.393 289.561L260.275 300.411C263.557 303.416 268.796 303.538 274.665 300.737C277.409 299.432 280.205 297.039 282.503 294.034L282.844 293.585L267.483 279.553C264.975 277.255 261.627 276.14 257.688 276.29C257.531 276.29 257.321 276.426 257.163 276.63H257.176Z" fill="white"/>
<path d="M242.76 293.245L231.823 301.254C231.114 301.771 230.72 302.491 230.943 302.858L238.309 314.865C240.344 318.182 245.018 319.352 251.136 318.087C253.999 317.489 257.228 315.952 260.209 313.777L260.655 313.451L251.136 297.936C249.587 295.407 246.909 293.735 243.338 293.069C243.193 293.041 242.97 293.123 242.773 293.259L242.76 293.245Z" fill="white"/>
<path d="M224.681 304.803L212.13 309.14C211.316 309.426 210.738 309.929 210.83 310.255L213.994 321.16C214.874 324.178 218.826 325.973 224.878 326.082C227.701 326.136 231.167 325.511 234.581 324.328L235.093 324.151L230.997 310.065C230.327 307.767 228.371 305.945 225.259 304.748C225.128 304.694 224.905 304.721 224.668 304.803H224.681Z" fill="white"/>
<path d="M204.344 310.378L191.175 310.718C190.321 310.745 189.639 311.03 189.639 311.37L189.875 322.37C189.941 325.416 193.276 328.23 199.052 330.107C201.757 330.991 205.223 331.426 208.821 331.331H209.359L209.057 317.095C209.005 314.77 207.587 312.512 204.921 310.514C204.816 310.432 204.593 310.378 204.344 310.391V310.378Z" fill="white"/>
<path d="M165.756 158.241L154.648 165.964C153.926 166.467 152.705 165.774 151.917 164.428L121.89 113.33C114.813 101.202 115.286 94.9607 115.417 83.5256C115.47 78.182 117.177 74.0621 120.21 71.9546L120.669 71.6418L149.278 121.08C154.674 130.34 163.3 147.513 165.913 157.344C166.018 157.751 165.966 158.091 165.756 158.241Z" fill="white"/>
<path d="M148.792 171.675L140.1 182.484C139.536 183.191 138.262 182.974 137.251 182.008L104.467 150.599C95.3947 141.911 88.9219 130.938 86.6637 120.455C85.6133 115.546 86.3354 111.209 88.6987 108.272L89.0532 107.823L131.435 148.424C138.354 155.059 144.289 162.714 148.74 170.804C148.923 171.144 148.936 171.471 148.779 171.675H148.792Z" fill="white"/>
<path d="M135.939 189.745L130.372 202.771C130.005 203.614 128.875 203.872 127.825 203.342L93.9118 186.06C84.5242 181.274 76.9748 173.483 73.1542 164.632C71.3686 160.498 71.2241 156.242 72.734 152.693L72.9572 152.163L116.796 174.503C123.952 178.147 130.438 183.11 135.729 188.97C135.952 189.215 136.018 189.514 135.913 189.759L135.939 189.745Z" fill="white"/>
<path d="M128.245 211.024L126.236 225.233C126.105 226.158 125.212 226.77 124.254 226.607L92.8746 221.317C84.196 219.849 76.4234 214.927 71.513 207.761C69.2154 204.416 68.2569 200.419 68.8084 196.544L68.8871 195.959L109.457 202.812C116.087 203.927 122.416 206.51 127.93 210.345C128.153 210.508 128.285 210.766 128.245 211.024Z" fill="white"/>
<path d="M126.303 233.813L128.01 248.062C128.115 248.987 127.59 249.83 126.828 249.939L101.974 253.488C95.0946 254.467 88.1229 251.856 82.7923 246.308C80.2978 243.711 78.6697 240.135 78.2102 236.247L78.1445 235.662L110.285 231.08C115.537 230.332 120.894 231.08 125.923 233.242C126.133 233.337 126.277 233.554 126.316 233.813H126.303Z" fill="white"/>
<path d="M130.279 256.275L135.57 269.437C135.912 270.293 135.728 271.204 135.163 271.476L116.677 280.328C111.557 282.775 105.373 281.837 99.6613 277.731C96.996 275.814 94.7246 272.768 93.2804 269.178L93.0703 268.635L116.966 257.186C120.865 255.31 125.264 254.834 129.82 255.799C130.003 255.84 130.187 256.017 130.279 256.261V256.275Z" fill="white"/>
<path d="M139.852 276.63L148.307 287.657C148.858 288.378 149.003 289.221 148.635 289.561L136.753 300.411C133.471 303.416 128.232 303.538 122.363 300.737C119.619 299.432 116.823 297.039 114.525 294.034L114.184 293.585L129.545 279.553C132.053 277.255 135.401 276.14 139.34 276.29C139.497 276.29 139.707 276.426 139.865 276.63H139.852Z" fill="white"/>
<path d="M154.255 293.245L165.192 301.254C165.901 301.771 166.294 302.491 166.071 302.858L158.706 314.865C156.671 318.182 151.997 319.352 145.878 318.087C143.016 317.489 139.786 315.952 136.806 313.777L136.359 313.451L145.878 297.936C147.427 295.407 150.106 293.735 153.677 293.069C153.822 293.041 154.045 293.123 154.242 293.259L154.255 293.245Z" fill="white"/>
<path d="M172.347 304.803L184.899 309.14C185.713 309.426 186.291 309.929 186.199 310.255L183.035 321.16C182.155 324.178 178.203 325.973 172.15 326.082C169.327 326.136 165.861 325.511 162.448 324.328L161.936 324.151L166.032 310.065C166.702 307.767 168.658 305.945 171.769 304.748C171.901 304.694 172.124 304.721 172.36 304.803H172.347Z" fill="white"/>
</svg>
