<svg width="512" height="512" viewBox="0 0 512 512" fill="none" xmlns="http://www.w3.org/2000/svg">
<path d="M320.565 170.729L342.463 185.955C343.887 186.947 346.294 185.58 347.847 182.926L407.045 82.215C420.997 58.3038 420.065 45.9996 419.806 23.4555C419.703 12.9206 416.338 4.79833 410.358 0.643352L409.478 0L353.076 97.4678C342.437 115.723 325.431 149.579 320.28 168.96C320.073 169.764 320.177 170.435 320.591 170.729H320.565Z" fill="white"/>
<path d="M354.009 197.215L371.144 218.526C372.257 219.919 374.768 219.491 376.761 217.587L441.394 155.665C459.281 138.535 472.042 116.903 476.494 96.2351C478.565 86.558 477.141 78.0068 472.482 72.2166L471.783 71.332L388.228 151.376C374.587 164.457 362.887 179.549 354.112 195.499C353.75 196.169 353.724 196.812 354.034 197.215H354.009Z" fill="white"/>
<path d="M379.351 232.839L390.326 258.519C391.051 260.181 393.277 260.691 395.348 259.645L462.207 225.574C480.715 216.138 495.598 200.778 503.131 183.327C506.651 175.178 506.936 166.788 503.959 159.792L503.519 158.746L417.091 202.789C402.984 209.973 390.197 219.757 379.765 231.311C379.325 231.793 379.196 232.383 379.403 232.866L379.351 232.839Z" fill="white"/>
<path d="M394.521 274.792L398.481 302.805C398.74 304.628 400.5 305.834 402.389 305.512L464.253 295.085C481.363 292.19 496.687 282.486 506.367 268.359C510.897 261.764 512.787 253.883 511.7 246.243L511.544 245.091L431.561 258.601C418.49 260.799 406.013 265.893 395.142 273.452C394.702 273.774 394.443 274.283 394.521 274.792Z" fill="white"/>
<path d="M398.351 319.718L394.986 347.811C394.779 349.634 395.815 351.296 397.316 351.51L446.315 358.507C459.879 360.437 473.623 355.29 484.132 344.353C489.05 339.233 492.26 332.183 493.166 324.516L493.296 323.364L429.93 314.33C419.577 312.855 409.016 314.33 399.102 318.592C398.688 318.78 398.403 319.209 398.325 319.718H398.351Z" fill="white"/>
<path d="M390.533 364.002L380.101 389.951C379.428 391.64 379.791 393.436 380.904 393.972L417.349 411.423C427.444 416.248 439.636 414.398 450.895 406.303C456.15 402.523 460.628 396.518 463.475 389.442L463.889 388.369L416.78 365.798C409.092 362.099 400.421 361.161 391.439 363.064C391.076 363.145 390.714 363.493 390.533 363.976V364.002Z" fill="white"/>
<path d="M371.664 404.131L354.995 425.871C353.908 427.292 353.623 428.954 354.348 429.624L377.773 451.015C384.244 456.939 394.572 457.181 406.143 451.659C411.552 449.085 417.066 444.367 421.596 438.443L422.269 437.558L391.984 409.894C387.04 405.364 380.439 403.166 372.674 403.461C372.363 403.461 371.949 403.729 371.639 404.131H371.664Z" fill="white"/>
<path d="M343.241 436.889L321.68 452.678C320.282 453.697 319.505 455.118 319.945 455.842L334.467 479.512C338.479 486.052 347.694 488.358 359.756 485.865C365.399 484.685 371.766 481.656 377.642 477.367L378.522 476.724L359.756 446.138C356.701 441.152 351.421 437.855 344.38 436.541C344.096 436.487 343.656 436.648 343.267 436.916L343.241 436.889Z" fill="white"/>
<path d="M307.6 459.674L282.855 468.225C281.25 468.788 280.111 469.78 280.292 470.424L286.531 491.922C288.265 497.873 296.056 501.412 307.989 501.626C313.554 501.733 320.387 500.5 327.117 498.168L328.127 497.82L320.051 470.048C318.731 465.518 314.874 461.926 308.739 459.567C308.481 459.46 308.041 459.513 307.575 459.674H307.6Z" fill="white"/>
<path d="M267.503 470.666L241.541 471.336C239.859 471.39 238.513 471.953 238.513 472.623L238.979 494.309C239.108 500.314 245.683 505.863 257.072 509.562C262.404 511.304 269.238 512.162 276.33 511.975H277.391L276.796 483.908C276.692 479.324 273.897 474.875 268.642 470.934C268.435 470.773 267.995 470.666 267.503 470.693V470.666Z" fill="white"/>
<path d="M191.431 170.729L169.532 185.955C168.109 186.947 165.702 185.58 164.148 182.926L104.951 82.1882C90.999 58.2769 91.9308 45.9728 92.1897 23.4287C92.2932 12.8938 95.6582 4.77153 101.637 0.616545L102.543 0L158.946 97.4678C169.584 115.723 186.59 149.579 191.741 168.96C191.948 169.764 191.845 170.435 191.431 170.729Z" fill="white"/>
<path d="M157.988 197.215L140.852 218.526C139.739 219.919 137.228 219.491 135.235 217.587L70.6017 155.665C52.7155 138.535 39.9545 116.903 35.5024 96.2351C33.4316 86.558 34.8553 78.0068 39.5145 72.2166L40.2134 71.332L123.768 151.376C137.41 164.457 149.109 179.549 157.884 195.499C158.247 196.169 158.272 196.812 157.962 197.215H157.988Z" fill="white"/>
<path d="M132.648 232.839L121.673 258.519C120.948 260.181 118.722 260.691 116.651 259.645L49.7917 225.574C31.2844 216.138 16.4008 200.778 8.8684 183.327C5.34811 175.178 5.06338 166.788 8.0401 159.792L8.48013 158.746L94.9084 202.789C109.015 209.973 121.802 219.757 132.234 231.311C132.674 231.793 132.803 232.383 132.596 232.866L132.648 232.839Z" fill="white"/>
<path d="M117.479 274.792L113.519 302.805C113.26 304.628 111.5 305.834 109.61 305.512L47.7461 295.085C30.6365 292.19 15.3129 282.486 5.63207 268.359C1.10228 261.764 -0.787282 253.883 0.299865 246.243L0.455172 245.091L80.4382 258.601C93.5098 260.799 105.986 265.893 116.858 273.452C117.298 273.774 117.556 274.283 117.479 274.792Z" fill="white"/>
<path d="M113.647 319.718L117.012 347.811C117.219 349.634 116.184 351.296 114.683 351.51L65.6834 358.507C52.12 360.437 38.3753 355.29 27.8662 344.353C22.9482 339.233 19.7385 332.183 18.8325 324.516L18.7031 323.364L82.0683 314.33C92.4221 312.855 102.983 314.33 112.897 318.592C113.311 318.78 113.596 319.209 113.673 319.718H113.647Z" fill="white"/>
<path d="M121.489 364.002L131.921 389.951C132.594 391.64 132.231 393.436 131.118 393.972L94.6731 411.423C84.5781 416.248 72.3866 414.398 61.1268 406.303C55.8723 402.523 51.3943 396.518 48.547 389.442L48.1328 388.369L95.2425 365.798C102.93 362.099 111.602 361.161 120.583 363.064C120.946 363.145 121.308 363.493 121.489 363.976V364.002Z" fill="white"/>
<path d="M140.362 404.131L157.032 425.871C158.119 427.292 158.403 428.954 157.679 429.624L134.253 451.015C127.782 456.939 117.454 457.181 105.884 451.659C100.474 449.085 94.9606 444.367 90.4308 438.443L89.7578 437.558L120.043 409.894C124.987 405.364 131.587 403.166 139.352 403.461C139.663 403.461 140.077 403.729 140.388 404.131H140.362Z" fill="white"/>
<path d="M168.757 436.889L190.319 452.678C191.717 453.697 192.493 455.118 192.053 455.842L177.532 479.512C173.52 486.052 164.305 488.358 152.243 485.865C146.6 484.685 140.232 481.656 134.357 477.367L133.477 476.724L152.243 446.138C155.297 441.152 160.578 437.855 167.618 436.541C167.903 436.487 168.343 436.648 168.731 436.916L168.757 436.889Z" fill="white"/>
<path d="M204.422 459.674L229.167 468.225C230.772 468.788 231.911 469.78 231.73 470.424L225.492 491.922C223.758 497.873 215.966 501.412 204.034 501.626C198.468 501.733 191.635 500.5 184.905 498.168L183.896 497.82L191.971 470.048C193.292 465.518 197.148 461.926 203.283 459.567C203.542 459.46 203.982 459.513 204.448 459.674H204.422Z" fill="white"/>
</svg>
