<svg width="176" height="60" viewBox="0 0 176 60" fill="none" xmlns="http://www.w3.org/2000/svg">
<g clip-path="url(#clip0_94_12485)">
<path d="M37.4596 19.8912L40.0183 21.666C40.1832 21.7809 40.4671 21.6224 40.6474 21.3134L47.5639 9.57518C49.1943 6.79018 49.083 5.35608 49.0562 2.72954C49.0447 1.50145 48.6495 0.554624 47.9514 0.0713087L47.8478 0L41.2574 11.3579C40.0145 13.4853 38.0274 17.431 37.4251 19.6852C37.4021 19.7803 37.4136 19.8595 37.4596 19.8912Z" fill="white"/>
<path d="M41.3686 22.9773L43.3711 25.4612C43.5015 25.6236 43.7931 25.5721 44.0271 25.3503L51.5804 18.1362C53.6711 16.1396 55.1633 13.62 55.6812 11.2113C55.9228 10.0863 55.7579 9.08793 55.2093 8.4105L55.1288 8.3075L45.3659 17.6371C43.77 19.1623 42.4044 20.9212 41.3801 22.7792C41.338 22.8545 41.3341 22.9337 41.3725 22.9773H41.3686Z" fill="white"/>
<path d="M44.3264 27.133L45.6115 30.124C45.6959 30.3181 45.9567 30.3775 46.1984 30.2547L54.0087 26.2852C56.1684 25.1878 57.91 23.3972 58.7885 21.3609C59.199 20.4102 59.2335 19.4356 58.8844 18.6195L58.8307 18.4967L48.7302 23.6309C47.0807 24.4708 45.5884 25.6078 44.3686 26.9547C44.3187 27.0102 44.2995 27.0815 44.3264 27.1369V27.133Z" fill="white"/>
<path d="M46.1025 32.0177L46.5667 35.282C46.5974 35.492 46.8007 35.6346 47.0232 35.599L54.2504 34.3828C56.2491 34.046 58.0405 32.913 59.1683 31.2689C59.6977 30.5004 59.9202 29.5813 59.7936 28.6939L59.7744 28.5592L50.4297 30.132C48.9029 30.3895 47.4452 30.9797 46.1716 31.8632C46.1179 31.8988 46.091 31.9622 46.0987 32.0216L46.1025 32.0177Z" fill="white"/>
<path d="M46.5475 37.2509L46.1524 40.5272C46.1255 40.7411 46.2483 40.9312 46.4247 40.959L52.152 41.7751C53.7364 42.0009 55.3437 41.3987 56.5713 40.127C57.1428 39.5328 57.5188 38.7088 57.6262 37.8135L57.6415 37.6788L50.2378 36.625C49.0295 36.4546 47.7942 36.625 46.6357 37.1241C46.5859 37.144 46.5513 37.1955 46.5475 37.2549V37.2509Z" fill="white"/>
<path d="M45.6345 42.4129L44.4146 45.4356C44.334 45.6337 44.3762 45.8436 44.5105 45.9031L48.7686 47.9354C49.9463 48.4979 51.3733 48.28 52.6891 47.3411C53.3029 46.9014 53.8284 46.2002 54.1583 45.3762L54.2082 45.2534L48.7034 42.6228C47.8057 42.195 46.7891 42.0841 45.7419 42.302C45.6997 42.3099 45.6575 42.3535 45.6345 42.4089V42.4129Z" fill="white"/>
<path d="M43.4286 47.0876L41.4799 49.6191C41.3533 49.7815 41.3187 49.9796 41.4031 50.0549L44.1383 52.5467C44.894 53.236 46.1024 53.2637 47.4527 52.622C48.0856 52.3209 48.7263 51.7742 49.2595 51.0849L49.34 50.9819L45.8032 47.7571C45.2239 47.2302 44.4528 46.9727 43.5475 47.0084C43.5092 47.0084 43.4631 47.0401 43.4286 47.0876Z" fill="white"/>
<path d="M40.1103 50.9065L37.59 52.7446C37.4251 52.8635 37.3368 53.0299 37.3867 53.1131L39.0823 55.8703C39.5503 56.6349 40.6282 56.9004 42.0361 56.6112C42.6959 56.4765 43.4401 56.1239 44.1267 55.6208L44.2303 55.5455L42.0361 51.9801C41.6793 51.3977 41.0617 51.0134 40.2408 50.8589C40.2062 50.851 40.1564 50.8708 40.1103 50.9025V50.9065Z" fill="white"/>
<path d="M35.9406 53.5608L33.0481 54.5591C32.8602 54.6225 32.7259 54.7373 32.7489 54.8166L33.4778 57.3203C33.6811 58.0136 34.5902 58.4256 35.9827 58.4533C36.6349 58.4652 37.429 58.3226 38.2192 58.0492L38.3381 58.0096L37.3944 54.773C37.241 54.2461 36.7883 53.8262 36.0748 53.5528C36.0441 53.5409 35.9943 53.5449 35.9406 53.5647V53.5608Z" fill="white"/>
<path d="M31.2604 54.8444L28.226 54.9196C28.0304 54.9236 27.8693 54.9909 27.8731 55.0702L27.9268 57.5977C27.9422 58.2949 28.7094 58.9446 30.0405 59.3764C30.662 59.5785 31.4637 59.6775 32.2923 59.6577H32.4151L32.346 56.3894C32.3345 55.8546 32.0084 55.3396 31.3947 54.8761C31.3678 54.8562 31.3179 54.8444 31.2604 54.8483V54.8444Z" fill="white"/>
<path d="M22.3684 19.8912L19.8097 21.666C19.6448 21.7809 19.3609 21.6224 19.1806 21.3134L12.2641 9.57518C10.6337 6.79018 10.745 5.35608 10.7718 2.72954C10.7833 1.50145 11.1785 0.554624 11.8766 0.0713087L11.9802 0L18.5706 11.3579C19.8135 13.4853 21.8007 17.431 22.4029 19.6852C22.4259 19.7803 22.4144 19.8595 22.3684 19.8912Z" fill="white"/>
<path d="M18.4631 22.9773L16.4607 25.4612C16.3302 25.6236 16.0387 25.5721 15.8047 25.3503L8.25138 18.1362C6.1607 16.1396 4.66845 13.62 4.15058 11.2113C3.9089 10.0863 4.07385 9.08793 4.62242 8.4105L4.70298 8.3075L14.4659 17.6371C16.0617 19.1623 17.4274 20.9212 18.4516 22.7792C18.4938 22.8545 18.4976 22.9337 18.4593 22.9773H18.4631Z" fill="white"/>
<path d="M15.5016 27.133L14.2165 30.124C14.1321 30.3181 13.8713 30.3775 13.6296 30.2547L5.81927 26.2852C3.65954 25.1878 1.91794 23.3972 1.03947 21.3609C0.629008 20.4102 0.594483 19.4356 0.943569 18.6195L0.997274 18.4967L11.0978 23.6309C12.7473 24.4708 14.2395 25.6078 15.4594 26.9547C15.5093 27.0102 15.5285 27.0815 15.5016 27.1369V27.133Z" fill="white"/>
<path d="M13.7294 32.0176L13.2653 35.2819C13.2346 35.4919 13.0313 35.6345 12.8088 35.5988L5.58153 34.3826C3.58292 34.0459 1.79145 32.9129 0.663634 31.2688C0.134251 30.5003 -0.0882437 29.5812 0.038348 28.6938L0.0575286 28.5591L9.4023 30.1318C10.9291 30.3893 12.3868 30.9796 13.6604 31.8631C13.7141 31.8987 13.7409 31.9621 13.7333 32.0215L13.7294 32.0176Z" fill="white"/>
<path d="M13.2806 37.2509L13.6757 40.5272C13.7025 40.7411 13.5798 40.9312 13.4033 40.959L7.676 41.7751C6.09169 42.0009 4.48435 41.3987 3.2568 40.127C2.68522 39.5328 2.30928 38.7088 2.20187 37.8135L2.18652 37.6788L9.59022 36.625C10.7986 36.4546 12.0338 36.625 13.1923 37.1241C13.2422 37.144 13.2767 37.1955 13.2806 37.2549V37.2509Z" fill="white"/>
<path d="M14.1975 42.4129L15.4174 45.4356C15.4979 45.6337 15.4557 45.8436 15.3215 45.9031L11.0634 47.9354C9.8857 48.4979 8.45867 48.28 7.14288 47.3411C6.5291 46.9014 6.00355 46.2002 5.67365 45.3762L5.62378 45.2534L11.1286 42.6228C12.0263 42.195 13.0428 42.0841 14.0901 42.302C14.1323 42.3099 14.1745 42.3535 14.1975 42.4089V42.4129Z" fill="white"/>
<path d="M16.3995 47.0875L18.3482 49.619C18.4748 49.7814 18.5093 49.9795 18.425 50.0547L15.6898 52.5466C14.9341 53.2359 13.7257 53.2636 12.3754 52.6218C11.7424 52.3208 11.1018 51.7741 10.5686 51.0847L10.488 50.9817L14.0249 47.757C14.6042 47.2301 15.3752 46.9726 16.2806 47.0083C16.3189 47.0083 16.365 47.04 16.3995 47.0875Z" fill="white"/>
<path d="M19.7176 50.9066L22.238 52.7448C22.4029 52.8636 22.4912 53.03 22.4413 53.1132L20.7457 55.8705C20.2777 56.6351 19.1998 56.9005 17.7919 56.6113C17.1321 56.4766 16.3879 56.124 15.7012 55.6209L15.5977 55.5456L17.7919 51.9802C18.1487 51.3978 18.7663 51.0135 19.5872 50.859C19.6217 50.8511 19.6716 50.8709 19.7176 50.9026V50.9066Z" fill="white"/>
<path d="M23.8876 53.5608L26.78 54.5591C26.968 54.6225 27.1022 54.7373 27.0792 54.8166L26.3503 57.3203C26.147 58.0136 25.2379 58.4256 23.8454 58.4533C23.1932 58.4652 22.3991 58.3226 21.6089 58.0492L21.49 58.0096L22.4337 54.773C22.5871 54.2461 23.0398 53.8262 23.7533 53.5528C23.784 53.5409 23.8339 53.5449 23.8876 53.5647V53.5608Z" fill="white"/>
<path d="M82.6322 10.4027V13.7578H73.7425V17.2099H81.6592V20.468H73.7425V27.3009H70.1118V10.3925H82.6322V10.4027Z" fill="white"/>
<path d="M85.9863 27.306V10.3976H93.7136C95.3779 10.3976 96.7912 10.9797 97.9639 12.139C99.1366 13.2982 99.7203 14.6668 99.7203 16.2448C99.7203 17.3376 99.408 18.3539 98.7883 19.2884C98.1687 20.2229 97.3494 20.8919 96.3304 21.2902L99.961 27.306H95.8439L92.4795 21.7499H89.6221V27.306H85.9915H85.9863ZM93.7136 18.6092C94.4101 18.6092 94.999 18.3692 95.4803 17.884C95.9668 17.3989 96.2075 16.8116 96.2075 16.1222C96.2075 15.4328 95.9668 14.8455 95.4803 14.3706C94.9938 13.8957 94.4049 13.6557 93.7136 13.6557H89.6221V18.6092H93.7136Z" fill="white"/>
<path d="M116.28 10.4027V13.7578H107.636V17.2099H115.312V20.4936H107.636V23.9457H116.28V27.3009H104V10.3925H116.28V10.4027Z" fill="white"/>
<path d="M132.28 10.4027V13.7578H123.636V17.2099H131.312V20.4936H123.636V23.9457H132.28V27.3009H120V10.3925H132.28V10.4027Z" fill="white"/>
<path d="M74.8486 32.3617H80.3688L86.0119 49.2701H82.2584L81.1676 45.915H73.978L72.8617 49.2701H69.0876L74.8537 32.3617H74.8486ZM80.1025 42.6262L77.6087 34.8742L75.0431 42.6262H80.1025Z" fill="white"/>
<path d="M87.8298 49.265V32.3566H95.5571C97.2214 32.3566 98.6347 32.9387 99.8074 34.098C100.98 35.2572 101.564 36.6258 101.564 38.2038C101.564 39.2966 101.251 40.3129 100.632 41.2474C100.012 42.1819 99.1929 42.8509 98.1739 43.2492L101.805 49.265H97.6874L94.323 43.7088H91.4656V49.265H87.835H87.8298ZM95.5571 40.5682C96.2536 40.5682 96.8425 40.3282 97.3238 39.843C97.8103 39.3579 98.051 38.7706 98.051 38.0812C98.051 37.3918 97.8103 36.8045 97.3238 36.3296C96.8373 35.8547 96.2484 35.6147 95.5571 35.6147H91.4656V40.5682H95.5571Z" fill="white"/>
<path d="M102.895 32.3617H116.65V35.7424H111.683V49.265H108.052V35.7424H102.895V32.3617Z" fill="white"/>
<path d="M119.072 49.265V32.3566H122.728V49.265H119.072Z" fill="white"/>
<path d="M127.04 33.5669C128.284 32.6323 129.795 32.1676 131.567 32.1676C133.651 32.1676 135.725 32.7651 137.788 33.955V37.6522C136.805 37.0088 135.755 36.4981 134.639 36.1202C133.523 35.7423 132.498 35.5534 131.561 35.5534C130.773 35.5534 130.107 35.6964 129.575 35.9874C129.042 36.2785 128.776 36.6717 128.776 37.1722C128.776 37.6727 129.088 38.0812 129.708 38.357C130.327 38.6327 131.285 38.9289 132.575 39.2506L132.913 39.3221C133.011 39.3528 133.108 39.3783 133.205 39.3936C136.739 40.2771 138.51 41.993 138.51 44.5361C138.51 46.1141 137.865 47.3295 136.575 48.1823C135.284 49.0351 133.779 49.4641 132.068 49.4641H131.874C129.293 49.3977 127.178 48.6419 125.529 47.1916V43.4739C127.629 45.2153 129.825 46.0835 132.114 46.0835C132.903 46.0835 133.564 45.9507 134.086 45.6851C134.608 45.4196 134.875 45.0366 134.875 44.5361C134.875 44.0357 134.557 43.622 133.917 43.2441C133.277 42.8662 132.12 42.4679 130.44 42.0491C126.901 41.181 125.135 39.5622 125.135 37.1926C125.135 35.727 125.765 34.5218 127.024 33.572L127.04 33.5669Z" fill="white"/>
<path d="M139.97 32.3617H153.724V35.7424H148.757V49.265H145.126V35.7424H139.97V32.3617Z" fill="white"/>
<path d="M157.309 33.5669C158.553 32.6323 160.064 32.1676 161.836 32.1676C163.92 32.1676 165.994 32.7651 168.058 33.955V37.6522C167.074 37.0088 166.025 36.4981 164.908 36.1202C163.792 35.7423 162.768 35.5534 161.831 35.5534C161.042 35.5534 160.376 35.6964 159.844 35.9874C159.311 36.2785 159.045 36.6717 159.045 37.1722C159.045 37.6727 159.357 38.0812 159.977 38.357C160.597 38.6327 161.554 38.9289 162.845 39.2506L163.183 39.3221C163.28 39.3528 163.377 39.3783 163.474 39.3936C167.008 40.2771 168.78 41.993 168.78 44.5361C168.78 46.1141 168.134 47.3295 166.844 48.1823C165.553 49.0351 164.048 49.4641 162.338 49.4641H162.143C159.562 49.3977 157.447 48.6419 155.798 47.1916V43.4739C157.898 45.2153 160.095 46.0835 162.384 46.0835C163.172 46.0835 163.833 45.9507 164.355 45.6851C164.878 45.4196 165.144 45.0366 165.144 44.5361C165.144 44.0357 164.826 43.622 164.186 43.2441C163.546 42.8662 162.389 42.4679 160.709 42.0491C157.171 41.181 155.404 39.5622 155.404 37.1926C155.404 35.727 156.034 34.5218 157.294 33.572L157.309 33.5669Z" fill="white"/>
</g>
<defs>
<clipPath id="clip0_94_12485">
<rect width="176" height="59.6601" fill="white"/>
</clipPath>
</defs>
</svg>
